REM DIRINDEX 1\2\4\8,1\2\4\9,1\2\4\10,1\2\5\11,1\2\5\12,1\2\5\13,1\2\5\14,1\2\5\15,1\3\6\16,1\3\6\17,1\3\6\18,1\3\7\19,1\3\7\20,1\3\7\21,1\3\7\22,1\3\7\23
REM DIRNAME "folder01","folder02","folder03","folder04","folder05","folder06","folder07","folder08","folder09","folder10","folder11","folder12","folder13","folder14","folder15","folder16","folder17","folder18","folder19","folder20","folder21","folder22","folder23"
TITLE ""
FILE "LR_black_phrase_C01.mp3" MP3
  TRACK 01 AUDIO
    TITLE "0:"
    INDEX 01 00:00:00
  TRACK 02 AUDIO
    TITLE "19:cjc171_14001"
    INDEX 01 00:00:14
  TRACK 03 AUDIO
    TITLE "0:"
    INDEX 01 00:01:45
  TRACK 04 AUDIO
    TITLE "20:cjc171_14002"
    INDEX 01 00:02:03
  TRACK 05 AUDIO
    TITLE "0:"
    INDEX 01 00:03:18
  TRACK 06 AUDIO
    TITLE "21:cjc171_14003"
    INDEX 01 00:04:22
  TRACK 07 AUDIO
    TITLE "0:"
    INDEX 01 00:05:68
  TRACK 08 AUDIO
    TITLE "22:cjc171_14004"
    INDEX 01 00:06:32
  TRACK 09 AUDIO
    TITLE "0:"
    INDEX 01 00:08:37
  TRACK 10 AUDIO
    TITLE "23:cjc171_14005"
    INDEX 01 00:08:61
  TRACK 11 AUDIO
    TITLE "0:"
    INDEX 01 00:10:64
  TRACK 12 AUDIO
    TITLE "19:cjc171_14006"
    INDEX 01 00:11:63
  TRACK 13 AUDIO
    TITLE "0:"
    INDEX 01 00:13:17
  TRACK 14 AUDIO
    TITLE "20:cjc171_14007"
    INDEX 01 00:13:58
  TRACK 15 AUDIO
    TITLE "0:"
    INDEX 01 00:16:00
  TRACK 16 AUDIO
    TITLE "21:cjc171_14008"
    INDEX 01 00:16:72
  TRACK 17 AUDIO
    TITLE "0:"
    INDEX 01 00:18:45
  TRACK 18 AUDIO
    TITLE "22:cjc171_14009"
    INDEX 01 00:19:10
  TRACK 19 AUDIO
    TITLE "0:"
    INDEX 01 00:21:09
  TRACK 20 AUDIO
    TITLE "23:cjc171_14010"
    INDEX 01 00:21:38
  TRACK 21 AUDIO
    TITLE "0:"
    INDEX 01 00:23:37
  TRACK 22 AUDIO
    TITLE "19:cjc171_14011"
    INDEX 01 00:24:42
  TRACK 23 AUDIO
    TITLE "0:"
    INDEX 01 00:25:59
  TRACK 24 AUDIO
    TITLE "20:cjc171_14012"
    INDEX 01 00:26:27
  TRACK 25 AUDIO
    TITLE "0:"
    INDEX 01 00:27:66
  TRACK 26 AUDIO
    TITLE "21:cjc171_14013"
    INDEX 01 00:28:65
  TRACK 27 AUDIO
    TITLE "0:"
    INDEX 01 00:30:62
  TRACK 28 AUDIO
    TITLE "22:cjc171_14014"
    INDEX 01 00:31:28
  TRACK 29 AUDIO
    TITLE "0:"
    INDEX 01 00:34:13
  TRACK 30 AUDIO
    TITLE "23:cjc171_14015"
    INDEX 01 00:34:44
  TRACK 31 AUDIO
    TITLE "0:"
    INDEX 01 00:37:29
  TRACK 32 AUDIO
    TITLE "19:cjc171_14016"
    INDEX 01 00:38:32
  TRACK 33 AUDIO
    TITLE "0:"
    INDEX 01 00:39:42
  TRACK 34 AUDIO
    TITLE "20:cjc171_14017"
    INDEX 01 00:40:06
  TRACK 35 AUDIO
    TITLE "0:"
    INDEX 01 00:42:15
  TRACK 36 AUDIO
    TITLE "21:cjc171_14018"
    INDEX 01 00:43:12
  TRACK 37 AUDIO
    TITLE "0:"
    INDEX 01 00:45:50
  TRACK 38 AUDIO
    TITLE "22:cjc171_14019"
    INDEX 01 00:46:14
  TRACK 39 AUDIO
    TITLE "0:"
    INDEX 01 00:48:27
  TRACK 40 AUDIO
    TITLE "23:cjc171_14020"
    INDEX 01 00:48:56
  TRACK 41 AUDIO
    TITLE "0:"
    INDEX 01 00:50:71
  TRACK 42 AUDIO
    TITLE "19:cjc171_14021"
    INDEX 01 00:51:74
  TRACK 43 AUDIO
    TITLE "0:"
    INDEX 01 00:53:22
  TRACK 44 AUDIO
    TITLE "20:cjc171_14022"
    INDEX 01 00:53:61
  TRACK 45 AUDIO
    TITLE "0:"
    INDEX 01 00:56:05
  TRACK 46 AUDIO
    TITLE "21:cjc171_14023"
    INDEX 01 00:57:04
  TRACK 47 AUDIO
    TITLE "0:"
    INDEX 01 00:58:67
  TRACK 48 AUDIO
    TITLE "22:cjc171_14024"
    INDEX 01 00:59:29
  TRACK 49 AUDIO
    TITLE "0:"
    INDEX 01 01:01:41
  TRACK 50 AUDIO
    TITLE "23:cjc171_14025"
    INDEX 01 01:01:69
  TRACK 51 AUDIO
    TITLE "0:"
    INDEX 01 01:04:04
  TRACK 52 AUDIO
    TITLE "19:cjc171_14026"
    INDEX 01 01:05:10
  TRACK 53 AUDIO
    TITLE "0:"
    INDEX 01 01:06:46
  TRACK 54 AUDIO
    TITLE "20:cjc171_14027"
    INDEX 01 01:07:09
  TRACK 55 AUDIO
    TITLE "0:"
    INDEX 01 01:09:27
  TRACK 56 AUDIO
    TITLE "21:cjc171_14028"
    INDEX 01 01:10:27
  TRACK 57 AUDIO
    TITLE "0:"
    INDEX 01 01:13:35
  TRACK 58 AUDIO
    TITLE "22:cjc171_14029"
    INDEX 01 01:13:74
  TRACK 59 AUDIO
    TITLE "0:"
    INDEX 01 01:17:05
  TRACK 60 AUDIO
    TITLE "23:cjc171_14030"
    INDEX 01 01:17:34
  TRACK 61 AUDIO
    TITLE "0:"
    INDEX 01 01:20:39
  TRACK 62 AUDIO
    TITLE "19:cjc171_14031"
    INDEX 01 01:21:48
  TRACK 63 AUDIO
    TITLE "0:"
    INDEX 01 01:22:69
  TRACK 64 AUDIO
    TITLE "20:cjc171_14032"
    INDEX 01 01:23:31
  TRACK 65 AUDIO
    TITLE "0:"
    INDEX 01 01:25:44
  TRACK 66 AUDIO
    TITLE "21:cjc171_14033"
    INDEX 01 01:26:41
  TRACK 67 AUDIO
    TITLE "0:"
    INDEX 01 01:30:14
  TRACK 68 AUDIO
    TITLE "22:cjc171_14034"
    INDEX 01 01:30:53
  TRACK 69 AUDIO
    TITLE "0:"
    INDEX 01 01:33:55
  TRACK 70 AUDIO
    TITLE "23:cjc171_14035"
    INDEX 01 01:34:09
  TRACK 71 AUDIO
    TITLE "0:"
    INDEX 01 01:37:12
  TRACK 72 AUDIO
    TITLE "19:cjc171_14036"
    INDEX 01 01:38:17
  TRACK 73 AUDIO
    TITLE "0:"
    INDEX 01 01:39:32
  TRACK 74 AUDIO
    TITLE "20:cjc171_14037"
    INDEX 01 01:39:73
  TRACK 75 AUDIO
    TITLE "0:"
    INDEX 01 01:41:47
  TRACK 76 AUDIO
    TITLE "21:cjc171_14038"
    INDEX 01 01:42:44
  TRACK 77 AUDIO
    TITLE "0:"
    INDEX 01 01:45:09
  TRACK 78 AUDIO
    TITLE "22:cjc171_14039"
    INDEX 01 01:45:48
  TRACK 79 AUDIO
    TITLE "0:"
    INDEX 01 01:48:04
  TRACK 80 AUDIO
    TITLE "23:cjc171_14040"
    INDEX 01 01:48:25
  TRACK 81 AUDIO
    TITLE "0:"
    INDEX 01 01:50:54
  TRACK 82 AUDIO
    TITLE "19:cjc171_14041"
    INDEX 01 01:51:49
  TRACK 83 AUDIO
    TITLE "0:"
    INDEX 01 01:52:58
  TRACK 84 AUDIO
    TITLE "20:cjc171_14042"
    INDEX 01 01:53:24
  TRACK 85 AUDIO
    TITLE "0:"
    INDEX 01 01:55:51
  TRACK 86 AUDIO
    TITLE "21:cjc171_14043"
    INDEX 01 01:56:52
  TRACK 87 AUDIO
    TITLE "0:"
    INDEX 01 02:00:13
  TRACK 88 AUDIO
    TITLE "22:cjc171_14044"
    INDEX 01 02:00:52
  TRACK 89 AUDIO
    TITLE "0:"
    INDEX 01 02:03:29
  TRACK 90 AUDIO
    TITLE "23:cjc171_14045"
    INDEX 01 02:03:56
  TRACK 91 AUDIO
    TITLE "0:"
    INDEX 01 02:06:35
  TRACK 92 AUDIO
    TITLE "19:cjc171_14046"
    INDEX 01 02:07:36
  TRACK 93 AUDIO
    TITLE "0:"
    INDEX 01 02:08:57
  TRACK 94 AUDIO
    TITLE "20:cjc171_14047"
    INDEX 01 02:09:22
  TRACK 95 AUDIO
    TITLE "0:"
    INDEX 01 02:10:54
  TRACK 96 AUDIO
    TITLE "21:cjc171_14048"
    INDEX 01 02:11:52
  TRACK 97 AUDIO
    TITLE "0:"
    INDEX 01 02:13:74
  TRACK 98 AUDIO
    TITLE "22:cjc171_14049"
    INDEX 01 02:14:40
  TRACK 99 AUDIO
    TITLE "0:"
    INDEX 01 02:16:74
  TRACK 100 AUDIO
    TITLE "23:cjc171_14050"
    INDEX 01 02:17:29
  TRACK 101 AUDIO
    TITLE "0:"
    INDEX 01 02:19:65
  TRACK 102 AUDIO
    TITLE "19:cjc171_14051"
    INDEX 01 02:20:70
  TRACK 103 AUDIO
    TITLE "0:"
    INDEX 01 02:22:07
  TRACK 104 AUDIO
    TITLE "20:cjc171_14052"
    INDEX 01 02:22:50
  TRACK 105 AUDIO
    TITLE "0:"
    INDEX 01 02:23:49
  TRACK 106 AUDIO
    TITLE "21:cjc171_14053"
    INDEX 01 02:24:48
  TRACK 107 AUDIO
    TITLE "0:"
    INDEX 01 02:26:16
  TRACK 108 AUDIO
    TITLE "22:cjc171_14054"
    INDEX 01 02:26:55
  TRACK 109 AUDIO
    TITLE "0:"
    INDEX 01 02:28:38
  TRACK 110 AUDIO
    TITLE "23:cjc171_14055"
    INDEX 01 02:28:70
  TRACK 111 AUDIO
    TITLE "0:"
    INDEX 01 02:30:55
  TRACK 112 AUDIO
    TITLE "19:cjc171_14056"
    INDEX 01 02:31:58
  TRACK 113 AUDIO
    TITLE "0:"
    INDEX 01 02:33:16
  TRACK 114 AUDIO
    TITLE "20:cjc171_14057"
    INDEX 01 02:33:57
  TRACK 115 AUDIO
    TITLE "0:"
    INDEX 01 02:36:12
  TRACK 116 AUDIO
    TITLE "21:cjc171_14058"
    INDEX 01 02:37:08
  TRACK 117 AUDIO
    TITLE "0:"
    INDEX 01 02:39:23
  TRACK 118 AUDIO
    TITLE "22:cjc171_14059"
    INDEX 01 02:39:60
  TRACK 119 AUDIO
    TITLE "0:"
    INDEX 01 02:42:29
  TRACK 120 AUDIO
    TITLE "23:cjc171_14060"
    INDEX 01 02:42:62
  TRACK 121 AUDIO
    TITLE "0:"
    INDEX 01 02:45:29
  TRACK 122 AUDIO
    TITLE "19:cjc171_14061"
    INDEX 01 02:46:34
  TRACK 123 AUDIO
    TITLE "0:"
    INDEX 01 02:47:48
  TRACK 124 AUDIO
    TITLE "20:cjc171_14062"
    INDEX 01 02:48:12
  TRACK 125 AUDIO
    TITLE "0:"
    INDEX 01 02:50:03
  TRACK 126 AUDIO
    TITLE "21:cjc171_14063"
    INDEX 01 02:51:02
  TRACK 127 AUDIO
    TITLE "0:"
    INDEX 01 02:52:74
  TRACK 128 AUDIO
    TITLE "22:cjc171_14064"
    INDEX 01 02:53:40
  TRACK 129 AUDIO
    TITLE "0:"
    INDEX 01 02:55:28
  TRACK 130 AUDIO
    TITLE "23:cjc171_14065"
    INDEX 01 02:55:57
  TRACK 131 AUDIO
    TITLE "0:"
    INDEX 01 02:57:44
  TRACK 132 AUDIO
    TITLE "19:cjc171_14066"
    INDEX 01 02:58:49
  TRACK 133 AUDIO
    TITLE "0:"
    INDEX 01 02:59:70
  TRACK 134 AUDIO
    TITLE "20:cjc171_14067"
    INDEX 01 03:00:35
  TRACK 135 AUDIO
    TITLE "0:"
    INDEX 01 03:02:63
  TRACK 136 AUDIO
    TITLE "21:cjc171_14068"
    INDEX 01 03:03:62
  TRACK 137 AUDIO
    TITLE "0:"
    INDEX 01 03:05:55
  TRACK 138 AUDIO
    TITLE "22:cjc171_14069"
    INDEX 01 03:06:19
  TRACK 139 AUDIO
    TITLE "0:"
    INDEX 01 03:08:05
  TRACK 140 AUDIO
    TITLE "23:cjc171_14070"
    INDEX 01 03:08:36
  TRACK 141 AUDIO
    TITLE "0:"
    INDEX 01 03:10:19
  TRACK 142 AUDIO
    TITLE "19:cjc171_14071"
    INDEX 01 03:11:23
  TRACK 143 AUDIO
    TITLE "0:"
    INDEX 01 03:12:44
  TRACK 144 AUDIO
    TITLE "20:cjc171_14072"
    INDEX 01 03:13:06
  TRACK 145 AUDIO
    TITLE "0:"
    INDEX 01 03:15:71
  TRACK 146 AUDIO
    TITLE "21:cjc171_14073"
    INDEX 01 03:16:69
  TRACK 147 AUDIO
    TITLE "0:"
    INDEX 01 03:19:61
  TRACK 148 AUDIO
    TITLE "22:cjc171_14074"
    INDEX 01 03:20:24
  TRACK 149 AUDIO
    TITLE "0:"
    INDEX 01 03:22:69
  TRACK 150 AUDIO
    TITLE "23:cjc171_14075"
    INDEX 01 03:23:28
  TRACK 151 AUDIO
    TITLE "0:"
    INDEX 01 03:25:74
  TRACK 152 AUDIO
    TITLE "19:cjc171_14076"
    INDEX 01 03:27:10
  TRACK 153 AUDIO
    TITLE "0:"
    INDEX 01 03:28:25
  TRACK 154 AUDIO
    TITLE "20:cjc171_14077"
    INDEX 01 03:28:64
  TRACK 155 AUDIO
    TITLE "0:"
    INDEX 01 03:30:20
  TRACK 156 AUDIO
    TITLE "21:cjc171_14078"
    INDEX 01 03:31:14
  TRACK 157 AUDIO
    TITLE "0:"
    INDEX 01 03:33:57
  TRACK 158 AUDIO
    TITLE "22:cjc171_14079"
    INDEX 01 03:34:20
  TRACK 159 AUDIO
    TITLE "0:"
    INDEX 01 03:37:08
  TRACK 160 AUDIO
    TITLE "23:cjc171_14080"
    INDEX 01 03:37:40
  TRACK 161 AUDIO
    TITLE "0:"
    INDEX 01 03:40:28
  TRACK 162 AUDIO
    TITLE "19:cjc171_14081"
    INDEX 01 03:41:35
  TRACK 163 AUDIO
    TITLE "0:"
    INDEX 01 03:42:51
  TRACK 164 AUDIO
    TITLE "20:cjc171_14082"
    INDEX 01 03:43:15
  TRACK 165 AUDIO
    TITLE "0:"
    INDEX 01 03:44:44
  TRACK 166 AUDIO
    TITLE "21:cjc171_14083"
    INDEX 01 03:45:37
  TRACK 167 AUDIO
    TITLE "0:"
    INDEX 01 03:48:28
  TRACK 168 AUDIO
    TITLE "22:cjc171_14084"
    INDEX 01 03:48:67
  TRACK 169 AUDIO
    TITLE "0:"
    INDEX 01 03:51:52
  TRACK 170 AUDIO
    TITLE "23:cjc171_14085"
    INDEX 01 03:52:08
  TRACK 171 AUDIO
    TITLE "0:"
    INDEX 01 03:54:67
  TRACK 172 AUDIO
    TITLE "19:cjc171_14086"
    INDEX 01 03:55:73
  TRACK 173 AUDIO
    TITLE "0:"
    INDEX 01 03:57:25
  TRACK 174 AUDIO
    TITLE "20:cjc171_14087"
    INDEX 01 03:57:64
  TRACK 175 AUDIO
    TITLE "0:"
    INDEX 01 04:00:07
  TRACK 176 AUDIO
    TITLE "21:cjc171_14088"
    INDEX 01 04:01:07
  TRACK 177 AUDIO
    TITLE "0:"
    INDEX 01 04:03:21
  TRACK 178 AUDIO
    TITLE "22:cjc171_14089"
    INDEX 01 04:03:63
  TRACK 179 AUDIO
    TITLE "0:"
    INDEX 01 04:05:63
  TRACK 180 AUDIO
    TITLE "23:cjc171_14090"
    INDEX 01 04:06:18
  TRACK 181 AUDIO
    TITLE "0:"
    INDEX 01 04:08:19
  TRACK 182 AUDIO
    TITLE "19:cjc171_14091"
    INDEX 01 04:09:22
  TRACK 183 AUDIO
    TITLE "0:"
    INDEX 01 04:10:43
  TRACK 184 AUDIO
    TITLE "20:cjc171_14092"
    INDEX 01 04:11:07
  TRACK 185 AUDIO
    TITLE "0:"
    INDEX 01 04:12:32
  TRACK 186 AUDIO
    TITLE "21:cjc171_14093"
    INDEX 01 04:13:30
  TRACK 187 AUDIO
    TITLE "0:"
    INDEX 01 04:15:52
  TRACK 188 AUDIO
    TITLE "22:cjc171_14094"
    INDEX 01 04:16:18
  TRACK 189 AUDIO
    TITLE "0:"
    INDEX 01 04:19:20
  TRACK 190 AUDIO
    TITLE "23:cjc171_14095"
    INDEX 01 04:19:48
  TRACK 191 AUDIO
    TITLE "0:"
    INDEX 01 04:22:50
  TRACK 192 AUDIO
    TITLE "19:cjc171_14096"
    INDEX 01 04:23:52
  TRACK 193 AUDIO
    TITLE "0:"
    INDEX 01 04:25:19
  TRACK 194 AUDIO
    TITLE "20:cjc171_14097"
    INDEX 01 04:25:50
  TRACK 195 AUDIO
    TITLE "0:"
    INDEX 01 04:27:53
  TRACK 196 AUDIO
    TITLE "21:cjc171_14098"
    INDEX 01 04:28:55
  TRACK 197 AUDIO
    TITLE "0:"
    INDEX 01 04:30:50
  TRACK 198 AUDIO
    TITLE "22:cjc171_14099"
    INDEX 01 04:31:12
  TRACK 199 AUDIO
    TITLE "0:"
    INDEX 01 04:33:42
  TRACK 200 AUDIO
    TITLE "23:cjc171_14100"
    INDEX 01 04:33:70
  TRACK 201 AUDIO
    TITLE "0:"
    INDEX 01 04:36:19
